<svg width="247" height="69" viewBox="0 0 247 69" fill="none" xmlns="http://www.w3.org/2000/svg">
<path d="M44.9105 65.1692C44.9105 67.1033 37.3456 68.6665 28.0157 68.6665C18.6858 68.6665 11.1172 67.1033 11.1172 65.1692C11.1172 63.715 15.4123 62.4208 21.5089 61.9518C21.5089 62.4535 21.5089 64.4967 21.5089 64.7584C21.5749 64.7584 22.1204 62.0718 22.1424 61.8973C24.0208 61.7482 25.8809 61.6755 28.001 61.6755C29.7513 61.6755 31.4393 61.7301 33.0285 61.8319L33.6986 64.7657C33.6986 64.7657 33.6986 62.3408 33.6986 61.8791C40.2419 62.3626 44.9105 63.6532 44.9105 65.1692Z" fill="#303030"/>
<path d="M12.516 29.7416C11.1653 29.7416 9.84503 29.344 8.72201 28.599C7.59899 27.854 6.72371 26.7951 6.20684 25.5562C5.68997 24.3173 5.55473 22.954 5.81823 21.6388C6.08173 20.3236 6.73213 19.1155 7.68717 18.1673C8.64222 17.219 9.85903 16.5733 11.1837 16.3117C12.5084 16.0501 13.8815 16.1843 15.1293 16.6975C16.3772 17.2107 17.4437 18.0797 18.1941 19.1947C18.9444 20.3097 19.345 21.6205 19.345 22.9615C19.343 24.7591 18.6229 26.4826 17.3427 27.7537C16.0624 29.0248 14.3265 29.7397 12.516 29.7416Z" fill="#303030"/>
<path d="M16.7525 20.7221C16.6903 20.773 16.5474 20.8639 16.4376 20.9475C16.3278 21.0311 16.2033 21.1147 16.0714 21.202C15.8334 21.3801 15.5954 21.5655 15.3611 21.7546C14.8924 22.1181 14.4274 22.5217 13.988 22.9361C13.1007 23.7487 12.2746 24.6248 11.5163 25.5573C10.006 27.3722 8.77788 29.4015 7.87301 31.5776C7.43243 32.656 7.07739 33.767 6.81113 34.9004C6.65734 35.4603 6.56946 36.0347 6.44497 36.6018C6.39736 36.889 6.36441 37.1798 6.32047 37.467C6.27653 37.7542 6.23625 38.0451 6.2216 38.3359L6.14471 39.212C6.12274 39.5029 6.12274 39.7974 6.10809 40.0918C6.07514 40.6771 6.10809 41.2697 6.10809 41.8587C6.10809 42.1531 6.10809 42.4512 6.14837 42.7457L6.22527 43.6255C6.24358 43.9236 6.29484 44.2181 6.32413 44.5162L6.37906 44.9633L6.40469 45.1851C6.40469 45.2251 6.46327 45.2542 6.28019 45.316L6.22527 45.3378L6.11542 45.3669L5.90304 45.425L5.77855 45.4578L5.58814 45.4977L5.20367 45.5814L4.96932 45.6323C3.85169 45.8659 2.71851 46.019 1.57864 46.0903L1.18684 46.1121H0.989111C0.923202 46.1121 0.908555 46.1121 0.864615 46.1121H0.516759H0.458172C0.264105 46.1121 0.31903 46.0431 0.304383 45.9994L0.27509 45.7341L0.212842 45.1996C0.176226 44.8361 0.124963 44.4944 0.102993 44.1345L0.0407447 43.0438C0.0151131 42.6803 -0.00319509 42.3167 0.000466556 41.9532C0.000466556 41.2261 0.000466556 40.499 0.0517296 39.7719C0.0736995 39.4084 0.0846844 39.0448 0.121301 38.6813L0.249459 37.5906C0.286075 37.2271 0.351985 36.8635 0.414233 36.5C0.476481 36.1364 0.538729 35.7729 0.615623 35.4094C0.784059 34.6823 0.937848 33.9806 1.16853 33.2826C1.39922 32.5846 1.6299 31.952 1.88255 31.2649C2.13521 30.5778 2.45377 29.9125 2.7943 29.2618C3.44161 27.9494 4.2063 26.6975 5.07917 25.5209C5.94794 24.356 6.90913 23.2618 7.95356 22.249C8.99194 21.252 10.114 20.3447 11.3076 19.537C11.9008 19.1334 12.5123 18.759 13.1385 18.4063C13.4534 18.2318 13.7756 18.0682 14.1051 17.9083C14.2699 17.8283 14.4347 17.7483 14.6068 17.672L15.1743 17.4502C15.5747 17.3036 16.014 17.3004 16.4165 17.4413C16.8189 17.5821 17.1592 17.8581 17.3785 18.2215C17.5978 18.5849 17.6823 19.013 17.6175 19.4318C17.5527 19.8505 17.3426 20.2336 17.0235 20.5149L16.7525 20.7221Z" fill="#303030"/>
<path d="M9.36687 53.7066C9.23475 53.1036 8.98316 52.5327 8.62673 52.0272C8.2703 51.5216 7.81615 51.0915 7.29071 50.7619C7.10175 50.6442 6.90476 50.5397 6.70119 50.4492C6.17945 50.9579 5.5364 51.3271 4.83205 51.5223C4.12771 51.7174 3.38504 51.7322 2.67338 51.5653C2.31484 51.4805 1.96896 51.3498 1.64445 51.1763C0.998068 51.7388 0.518108 52.4654 0.256051 53.2781C-0.00600472 54.0909 -0.0402696 54.9591 0.156932 55.7898C0.354134 56.6204 0.775361 57.382 1.37543 57.993C1.97551 58.604 2.73179 59.0413 3.56316 59.2579L4.32112 56.3496C4.08116 56.2882 3.85744 56.176 3.66539 56.0206C3.47335 55.8651 3.31754 55.6702 3.2087 55.4492C3.09987 55.2281 3.04061 54.9863 3.035 54.7404C3.02938 54.4944 3.07756 54.2502 3.1762 54.0245C3.27484 53.7989 3.4216 53.5971 3.60636 53.4332C3.79112 53.2693 4.00948 53.1471 4.2464 53.075C4.48332 53.003 4.73316 52.9828 4.97868 53.0159C5.22421 53.049 5.45959 53.1346 5.6686 53.2667C5.88159 53.4018 6.06184 53.5821 6.19641 53.7945C6.33099 54.0069 6.41657 54.2463 6.44702 54.4954C6.47747 54.7445 6.45203 54.9973 6.37252 55.2355C6.29302 55.4737 6.16142 55.6915 5.98717 55.8733L8.18415 57.9346C8.71333 57.3789 9.09771 56.7032 9.30384 55.9663C9.50997 55.2294 9.5316 54.4537 9.36687 53.7066Z" fill="#303030"/>
<path d="M3.70594 50.9145C5.27522 50.9145 6.54738 49.6514 6.54738 48.0934C6.54738 46.5353 5.27522 45.2723 3.70594 45.2723C2.13666 45.2723 0.864502 46.5353 0.864502 48.0934C0.864502 49.6514 2.13666 50.9145 3.70594 50.9145Z" fill="#303030"/>
<path d="M35.9066 22.9615C35.9066 21.6205 36.3071 20.3097 37.0575 19.1947C37.8079 18.0797 38.8744 17.2107 40.1222 16.6975C41.3701 16.1843 42.7432 16.0501 44.0678 16.3117C45.3925 16.5733 46.6093 17.219 47.5644 18.1673C48.5194 19.1155 49.1698 20.3236 49.4333 21.6388C49.6968 22.954 49.5616 24.3173 49.0447 25.5562C48.5279 26.7951 47.6526 27.854 46.5296 28.599C45.4065 29.344 44.0862 29.7416 42.7356 29.7416C40.925 29.7397 39.1892 29.0248 37.9089 27.7537C36.6287 26.4826 35.9086 24.7591 35.9066 22.9615Z" fill="#303030"/>
<path d="M38.499 20.7221C38.5613 20.773 38.7004 20.8639 38.8102 20.9475C38.9201 21.0311 39.0483 21.1147 39.1764 21.202C39.4144 21.3801 39.6524 21.5655 39.8868 21.7546C40.3555 22.1181 40.8205 22.5217 41.2599 22.9361C42.1471 23.7487 42.9732 24.6248 43.7315 25.5573C45.2484 27.371 46.4826 29.4003 47.3931 31.5776C47.8367 32.651 48.1955 33.7571 48.466 34.8858C48.6198 35.4457 48.7077 36.0201 48.8322 36.5872C48.8834 36.8744 48.9164 37.1653 48.9567 37.4525C48.997 37.7397 49.0446 38.0305 49.0592 38.3213L49.1361 39.1975C49.1581 39.4883 49.1581 39.7828 49.1727 40.0773C49.2057 40.6626 49.1727 41.2551 49.1727 41.8441C49.1727 42.1386 49.1727 42.4367 49.1324 42.7311L49.0738 43.6218C49.0555 43.9199 49.0043 44.2144 48.975 44.5125L48.9201 44.9597L48.8944 45.1814C48.8944 45.2214 48.8358 45.2505 49.0189 45.3123L49.0738 45.3341L49.1837 45.3632L49.3961 45.4214L49.5169 45.4541L49.711 45.4941L50.0954 45.5777L50.3298 45.6286C51.4474 45.8625 52.5806 46.0156 53.7205 46.0867L54.1123 46.1085H54.31C54.3759 46.1085 54.3906 46.1085 54.4345 46.1085H54.7677H54.8263C55.0204 46.1085 54.9654 46.0394 54.9801 45.9958L55.0094 45.7304L55.0716 45.196C55.1082 44.8324 55.1595 44.4907 55.1815 44.1308L55.2437 43.0402C55.2657 42.6766 55.2877 42.3131 55.284 41.9495C55.284 41.2224 55.284 40.4953 55.2327 39.7682C55.2108 39.4047 55.1998 39.0412 55.1632 38.6776L55.035 37.587C54.9984 37.2234 54.9325 36.8599 54.8666 36.4963C54.8007 36.1328 54.7457 35.7692 54.6688 35.4057C54.5004 34.6786 54.3466 33.977 54.1159 33.279C53.8853 32.581 53.6546 31.8829 53.4019 31.1958C53.1493 30.5087 52.8307 29.8435 52.4902 29.1927C51.8264 27.9027 51.0483 26.6739 50.165 25.5209C49.2963 24.3559 48.3351 23.2618 47.2906 22.249C46.2531 21.2547 45.1323 20.3498 43.9402 19.5442C43.347 19.1407 42.7319 18.7662 42.1094 18.4136C41.7908 18.2391 41.4723 18.0755 41.1427 17.9155L40.6447 17.6792L40.0772 17.4502C39.6782 17.312 39.2434 17.3151 38.8465 17.4589C38.4496 17.6027 38.115 17.8784 37.8995 18.2392C37.6839 18.6 37.6007 19.0237 37.6639 19.4385C37.7272 19.8533 37.9329 20.2336 38.2464 20.5149L38.499 20.7221Z" fill="#303030"/>
<path d="M45.8845 53.7066C46.0158 53.1033 46.2671 52.5321 46.6236 52.0265C46.9801 51.5208 47.4347 51.0909 47.9606 50.7619C48.1496 50.6442 48.3466 50.5397 48.5501 50.4492C49.0719 50.9579 49.7149 51.3271 50.4193 51.5223C51.1236 51.7174 51.8663 51.7322 52.578 51.5653C52.9365 51.4805 53.2824 51.3498 53.6069 51.1763C54.2533 51.7388 54.7332 52.4654 54.9953 53.2781C55.2573 54.0909 55.2916 54.9591 55.0944 55.7898C54.8972 56.6204 54.476 57.382 53.8759 57.993C53.2758 58.604 52.5196 59.0413 51.6882 59.2579L50.9302 56.3496C51.1702 56.2882 51.3939 56.176 51.5859 56.0206C51.778 55.8651 51.9338 55.6702 52.0426 55.4492C52.1515 55.2281 52.2107 54.9863 52.2163 54.7404C52.222 54.4944 52.1738 54.2502 52.0751 54.0245C51.9765 53.7989 51.8297 53.5971 51.645 53.4332C51.4602 53.2693 51.2419 53.1471 51.0049 53.075C50.768 53.003 50.5182 52.9828 50.2727 53.0159C50.0271 53.049 49.7917 53.1346 49.5827 53.2667C49.3959 53.3874 49.2349 53.5437 49.1092 53.7265C48.9835 53.9094 48.8956 54.1151 48.8504 54.3319C48.7891 54.604 48.7962 54.8869 48.8709 55.1557C48.9456 55.4245 49.0857 55.6709 49.2788 55.8733L47.0818 57.9346C46.5501 57.3803 46.163 56.7052 45.9543 55.9682C45.7456 55.2313 45.7216 54.4548 45.8845 53.7066Z" fill="#303030"/>
<path d="M51.5419 50.9145C53.1112 50.9145 54.3833 49.6514 54.3833 48.0934C54.3833 46.5353 53.1112 45.2723 51.5419 45.2723C49.9726 45.2723 48.7004 46.5353 48.7004 48.0934C48.7004 49.6514 49.9726 50.9145 51.5419 50.9145Z" fill="#303030"/>
<path d="M41.5528 0H13.5924C12.9127 0 12.2607 0.268114 11.78 0.74536C11.2993 1.22261 11.0293 1.86989 11.0293 2.54482V47.5808C11.0293 48.2558 11.2993 48.903 11.78 49.3803C12.2607 49.8575 12.9127 50.1257 13.5924 50.1257H41.5528C42.2326 50.1257 42.8845 49.8575 43.3652 49.3803C43.8459 48.903 44.1159 48.2558 44.1159 47.5808V2.54482C44.1159 1.86989 43.8459 1.22261 43.3652 0.74536C42.8845 0.268114 42.2326 0 41.5528 0ZM32.3987 1.67958H22.1461C22.0489 1.67958 21.9558 1.64128 21.8871 1.5731C21.8185 1.50492 21.7799 1.41245 21.7799 1.31603C21.7799 1.21962 21.8185 1.12715 21.8871 1.05897C21.9558 0.990791 22.0489 0.952489 22.1461 0.952489H32.3987C32.4958 0.952489 32.5889 0.990791 32.6576 1.05897C32.7263 1.12715 32.7648 1.21962 32.7648 1.31603C32.7648 1.41245 32.7263 1.50492 32.6576 1.5731C32.5889 1.64128 32.4958 1.67958 32.3987 1.67958Z" fill="#303030"/>
<path d="M21.4211 39.5829H21.5822L11.8495 49.1514C11.4371 49.5521 11.1716 50.0784 11.0953 50.6463C11.019 51.2142 11.1363 51.7911 11.4285 52.2852L18.2428 63.8314C18.4811 64.2302 18.8205 64.5602 19.2271 64.7886C19.6337 65.0169 20.0935 65.1356 20.5606 65.1328H21.1282C21.2253 65.1328 21.3184 65.0945 21.3871 65.0264C21.4557 64.9582 21.4943 64.8657 21.4943 64.7693V54.1101C21.4957 53.7642 21.5662 53.4221 21.7016 53.1034C21.837 52.7847 22.0347 52.4958 22.2833 52.2534C22.5319 52.011 22.8263 51.8199 23.1497 51.6912C23.4731 51.5625 23.819 51.4987 24.1673 51.5035H31.0549C31.4014 51.5011 31.745 51.5666 32.066 51.6961C32.3871 51.8257 32.6792 52.0168 32.9258 52.2586C33.1723 52.5004 33.3685 52.788 33.503 53.1051C33.6374 53.4222 33.7077 53.7625 33.7096 54.1065V64.7584C33.7096 64.8548 33.7482 64.9473 33.8168 65.0155C33.8855 65.0836 33.9786 65.1219 34.0757 65.1219H34.6653C35.1308 65.1273 35.5896 65.0117 35.9962 64.7865C36.4028 64.5614 36.743 64.2346 36.9831 63.8386L43.8011 52.2852C44.0931 51.7913 44.2106 51.2147 44.1349 50.647C44.0593 50.0793 43.7949 49.5529 43.3836 49.1514L33.3544 39.2811L21.4211 39.5829Z" fill="#303030"/>
<path d="M42.2852 42.9783V5.21321C42.2852 3.80775 41.1376 2.6684 39.722 2.6684L15.427 2.6684C14.0114 2.6684 12.8638 3.80775 12.8638 5.21321L12.8638 42.9783C12.8638 44.3838 14.0114 45.5231 15.427 45.5231H39.722C41.1376 45.5231 42.2852 44.3838 42.2852 42.9783Z" fill="#F79D65"/>
<path d="M37.7154 21.191L36.3386 20.2022C36.3853 19.8405 36.4085 19.4762 36.4082 19.1116C36.407 18.7373 36.3838 18.3634 36.3386 17.9918L37.7154 16.9957C38.6418 16.3959 38.5905 14.9526 37.5726 13.204C37.247 12.6163 36.8264 12.0857 36.3276 11.6334C35.4159 10.8482 34.7092 10.99 34.3357 11.179L32.7795 11.8697C32.1861 11.4275 31.539 11.061 30.8534 10.7791L30.6777 9.08862C30.6228 7.99798 29.3375 7.31451 27.3016 7.31451C25.2658 7.31451 23.9732 7.99798 23.9219 9.08862L23.7462 10.7682C23.0615 11.0518 22.4146 11.4181 21.8202 11.8588L20.2603 11.1681C19.2753 10.67 18.0633 11.4335 17.0271 13.1858C15.9908 14.9381 15.9542 16.385 16.8879 16.9812L18.2574 17.9664C18.2134 18.338 18.1914 18.7119 18.1915 19.0861C18.1917 19.4506 18.2137 19.8148 18.2574 20.1768L16.8843 21.1656C16.5181 21.391 16.0567 21.9254 16.2874 23.1033C16.429 23.7566 16.6763 24.3827 17.0197 24.9574C18.034 26.706 19.268 27.4731 20.253 26.9751L21.7982 26.2916C22.3967 26.741 23.0484 27.1159 23.7389 27.4077L23.9219 29.0836C23.9732 30.1743 25.2584 30.8614 27.3016 30.8614C29.3448 30.8614 30.6228 30.1815 30.6777 29.0873L30.8534 27.4222C31.5454 27.1312 32.1985 26.7564 32.7978 26.3061C33.2475 26.5447 33.7137 26.7512 34.1929 26.9242C34.8813 27.1605 35.5989 27.0587 36.4191 26.4552C36.8746 26.0185 37.2643 25.519 37.5762 24.9719C38.5942 23.2342 38.6454 21.7909 37.7154 21.191ZM27.3016 25.1573C26.0937 25.1573 24.9128 24.8017 23.9084 24.1354C22.904 23.4691 22.1212 22.522 21.6589 21.414C21.1967 20.3059 21.0757 19.0867 21.3114 17.9104C21.547 16.7341 22.1287 15.6536 22.9829 14.8055C23.8371 13.9575 24.9253 13.3799 26.1101 13.146C27.2949 12.912 28.5229 13.0321 29.6389 13.491C30.755 13.95 31.7088 14.7272 32.38 15.7244C33.0511 16.7217 33.4093 17.8941 33.4093 19.0934C33.4073 20.7011 32.7632 22.2423 31.6183 23.3791C30.4733 24.5159 28.9209 25.1554 27.3016 25.1573Z" fill="#303030"/>
<path d="M24.6726 36.22C24.6726 35.6759 24.2292 35.2348 23.6821 35.2348C23.1351 35.2348 22.6917 35.6759 22.6917 36.22V40.9207C22.6917 41.4648 23.1351 41.9059 23.6821 41.9059C24.2292 41.9059 24.6726 41.4648 24.6726 40.9207V36.22Z" fill="#303030"/>
<path d="M28.2904 34.5296C28.2904 33.9855 27.8469 33.5444 27.2999 33.5444C26.7529 33.5444 26.3094 33.9855 26.3094 34.5296V42.6112C26.3094 43.1553 26.7529 43.5964 27.2999 43.5964C27.8469 43.5964 28.2904 43.1553 28.2904 42.6112V34.5296Z" fill="#303030"/>
<path d="M31.9081 36.22C31.9081 35.6759 31.4646 35.2348 30.9176 35.2348C30.3706 35.2348 29.9271 35.6759 29.9271 36.22V40.9207C29.9271 41.4648 30.3706 41.9059 30.9176 41.9059C31.4646 41.9059 31.9081 41.4648 31.9081 40.9207V36.22Z" fill="#303030"/>
<path d="M30.7583 18.5626C30.3194 18.5633 29.8884 18.4463 29.5109 18.224C29.1333 18.0017 28.8232 17.6824 28.6132 17.2997C28.4032 16.917 28.3012 16.4851 28.3178 16.0496C28.3345 15.6141 28.4692 15.1912 28.7078 14.8254C27.829 14.5641 26.8895 14.5843 26.023 14.8832C25.1564 15.1822 24.4067 15.7446 23.8804 16.4907C23.3542 17.2367 23.078 18.1285 23.0913 19.0392C23.1045 19.9499 23.4065 20.8334 23.9542 21.564C24.502 22.2947 25.2677 22.8354 26.1426 23.1094C27.0175 23.3834 27.9571 23.3767 28.828 23.0903C29.6988 22.8039 30.4567 22.2523 30.9938 21.5139C31.5309 20.7756 31.8201 19.8879 31.8202 18.9771C31.818 18.7629 31.8008 18.5491 31.7689 18.3372C31.4528 18.485 31.1077 18.5619 30.7583 18.5626Z" fill="#303030"/>
<path d="M69.1112 42.539V36.4083H72.5794L84.5853 8.30542H87.7096L100.055 36.4083H103.714V42.5683H97.8194H75.0651L69.1112 42.539ZM79.948 36.3107H92.6319L86.1917 20.4206H86.1426L79.948 36.3107Z" fill="#303030"/>
<path d="M212.396 42.5927V36.462H215.86L227.866 8.35913H230.975L243.32 36.462H246.98V42.6366H241.085H218.35L212.396 42.5927ZM223.228 36.3644H235.917L229.502 20.4743H229.452L223.228 36.3644Z" fill="#303030"/>
<path d="M108.199 42.5683V8.65168C113.077 8.60291 117.911 8.65168 122.789 8.65168C130.742 8.65168 134.943 14.6117 134.943 21.0058C134.943 27.3024 130.6 32.9747 122.789 32.9747H115.534V42.5683H108.199ZM122.789 26.7756C125.913 26.7756 127.962 24.0639 127.962 20.8156C127.962 17.6698 125.997 15.0019 122.789 15.0019C120.299 14.9531 117.877 15.0019 115.371 15.0019V26.7708L122.789 26.7756Z" fill="#303030"/>
<path d="M155.579 43.1389C146.457 43.1389 138.209 37.0375 138.209 25.5807C138.209 14.124 146.649 8.09082 155.727 8.09082C164.658 8.09082 173.097 14.1972 173.097 25.5807C173.097 35.9206 165.925 43.1389 155.579 43.1389ZM155.678 36.501C160.998 36.501 165.827 33.0137 165.827 25.6002C165.827 18.3819 161.047 14.7971 155.727 14.7971C150.407 14.7971 145.578 18.4306 145.578 25.6002C145.578 33.0137 150.21 36.501 155.678 36.501Z" fill="#303030"/>
<path d="M181.296 42.6561H179.1V8.64681H186.42V27.8779L205.578 8.50049H207.887V42.5683H200.616V23.1811L181.296 42.6561Z" fill="#303030"/>
<path d="M69 50.2735H73.9553C75.1843 50.2735 76.1596 50.5416 76.8812 51.0777C77.6028 51.6032 77.9636 52.4343 77.9636 53.571C77.9636 55.8767 76.5937 57.0295 73.8539 57.0295H70.5898V61.7265H69V50.2735ZM70.5898 51.5764V55.7587H73.6509C74.5078 55.7587 75.173 55.6086 75.6466 55.3083C76.1314 54.9973 76.3738 54.4504 76.3738 53.6676C76.3738 53.2279 76.2949 52.8633 76.137 52.5737C75.9905 52.2842 75.7706 52.0697 75.4775 51.9303C75.1843 51.7909 74.8799 51.6997 74.5642 51.6568C74.2485 51.6032 73.8708 51.5764 73.4311 51.5764H70.5898Z" fill="#303030"/>
<path d="M88.2368 50.2735V51.5925H81.4888V55.1796H87.7971V56.4504H81.4888V60.4075H88.3214V61.7265H79.899V50.2735H88.2368Z" fill="#303030"/>
<path d="M90.2549 50.2735H92.4535L96.3265 59.9732L100.064 50.2735H102.28V61.7265H100.774V52.1716L97.003 61.7265H95.6162L91.777 52.1716V61.7265H90.2549V50.2735Z" fill="#303030"/>
<path d="M110.044 50C111.871 50 113.291 50.5469 114.306 51.6408C115.321 52.7239 115.828 54.1448 115.828 55.9035C115.828 57.6729 115.326 59.1314 114.323 60.2788C113.319 61.4263 111.899 62 110.061 62C109.125 62 108.285 61.8391 107.541 61.5174C106.797 61.1957 106.188 60.7507 105.714 60.1823C105.252 59.6139 104.897 58.9651 104.649 58.2359C104.412 57.5067 104.294 56.7185 104.294 55.8713C104.294 54.0804 104.812 52.6542 105.85 51.5925C106.898 50.5308 108.296 50 110.044 50ZM110.044 51.319C108.702 51.319 107.671 51.7694 106.949 52.6702C106.239 53.5603 105.884 54.6649 105.884 55.9839C105.884 57.4209 106.261 58.5684 107.017 59.4263C107.783 60.2735 108.804 60.6971 110.078 60.6971C111.341 60.6971 112.35 60.2681 113.105 59.4102C113.861 58.5523 114.238 57.4102 114.238 55.9839C114.238 54.5684 113.855 53.437 113.088 52.5898C112.333 51.7426 111.318 51.319 110.044 51.319Z" fill="#303030"/>
<path d="M127.358 50.2735V61.7265H125.769V56.37H119.41V61.7265H117.82V50.2735H119.41V55.0509H125.769V50.2735H127.358Z" fill="#303030"/>
<path d="M138.38 50.2735V51.5925H134.338V61.7265H132.748V51.5925H128.706V50.2735H138.38Z" fill="#303030"/>
<path d="M152.798 50.2735V51.5925H148.756V61.7265H147.166V51.5925H143.124V50.2735H152.798Z" fill="#303030"/>
<path d="M162.493 50.2735V51.5925H155.745V55.1796H162.053V56.4504H155.745V60.4075H162.577V61.7265H154.155V50.2735H162.493Z" fill="#303030"/>
<path d="M173.373 50.2735V61.7265H171.783V51.5925H167.335L167.099 58.0429C167.053 59.244 166.794 60.1984 166.321 60.9062C165.858 61.6139 165.187 61.9678 164.308 61.9678C163.947 61.9678 163.564 61.8928 163.158 61.7426V60.4558C163.338 60.563 163.626 60.6166 164.02 60.6166C164.347 60.6166 164.607 60.5469 164.798 60.4075C165.001 60.2574 165.176 59.9249 165.323 59.4102C165.481 58.8954 165.571 58.1769 165.593 57.2547L165.813 50.2735H173.373Z" fill="#303030"/>
<path d="M184.41 50.2735V51.5925H177.662V55.1796H183.97V56.4504H177.662V60.4075H184.494V61.7265H176.072V50.2735H184.41Z" fill="#303030"/>
<path d="M197.691 55.9517C197.691 57.3673 197.184 58.4558 196.169 59.2172C195.155 59.9678 193.909 60.3432 192.432 60.3432V61.7265H190.842V60.3432C189.376 60.3432 188.13 59.9571 187.104 59.185C186.089 58.4129 185.582 57.3351 185.582 55.9517C185.582 54.5684 186.095 53.4799 187.121 52.6863C188.147 51.882 189.387 51.4799 190.842 51.4799V50.2735H192.432V51.4799C193.909 51.4799 195.155 51.8767 196.169 52.6702C197.184 53.4638 197.691 54.5576 197.691 55.9517ZM196.085 55.9517C196.085 54.933 195.746 54.1555 195.07 53.6193C194.405 53.0724 193.525 52.7721 192.432 52.7185V59.1046C193.548 59.0295 194.433 58.7399 195.087 58.2359C195.752 57.7212 196.085 56.9598 196.085 55.9517ZM190.842 59.1046V52.7185C189.748 52.7721 188.863 53.0724 188.187 53.6193C187.521 54.1555 187.189 54.933 187.189 55.9517C187.189 56.9598 187.516 57.7212 188.17 58.2359C188.835 58.7399 189.726 59.0295 190.842 59.1046Z" fill="#303030"/>
<path d="M204.648 50C206.474 50 207.895 50.5469 208.91 51.6408C209.924 52.7239 210.432 54.1448 210.432 55.9035C210.432 57.6729 209.93 59.1314 208.927 60.2788C207.923 61.4263 206.503 62 204.665 62C203.729 62 202.889 61.8391 202.145 61.5174C201.401 61.1957 200.792 60.7507 200.318 60.1823C199.856 59.6139 199.501 58.9651 199.253 58.2359C199.016 57.5067 198.898 56.7185 198.898 55.8713C198.898 54.0804 199.416 52.6542 200.454 51.5925C201.502 50.5308 202.9 50 204.648 50ZM204.648 51.319C203.306 51.319 202.274 51.7694 201.553 52.6702C200.842 53.5603 200.487 54.6649 200.487 55.9839C200.487 57.4209 200.865 58.5684 201.62 59.4263C202.387 60.2735 203.408 60.6971 204.682 60.6971C205.944 60.6971 206.954 60.2681 207.709 59.4102C208.464 58.5523 208.842 57.4102 208.842 55.9839C208.842 54.5684 208.459 53.437 207.692 52.5898C206.937 51.7426 205.922 51.319 204.648 51.319Z" fill="#303030"/>
<path d="M221.962 50.2735V61.7265H220.372V56.37H214.013V61.7265H212.424V50.2735H214.013V55.0509H220.372V50.2735H221.962Z" fill="#303030"/>
<path d="M229.703 50C231.529 50 232.95 50.5469 233.965 51.6408C234.979 52.7239 235.487 54.1448 235.487 55.9035C235.487 57.6729 234.985 59.1314 233.981 60.2788C232.978 61.4263 231.557 62 229.719 62C228.784 62 227.944 61.8391 227.2 61.5174C226.455 61.1957 225.847 60.7507 225.373 60.1823C224.911 59.6139 224.556 58.9651 224.308 58.2359C224.071 57.5067 223.952 56.7185 223.952 55.8713C223.952 54.0804 224.471 52.6542 225.508 51.5925C226.557 50.5308 227.955 50 229.703 50ZM229.703 51.319C228.361 51.319 227.329 51.7694 226.608 52.6702C225.897 53.5603 225.542 54.6649 225.542 55.9839C225.542 57.4209 225.92 58.5684 226.675 59.4263C227.442 60.2735 228.462 60.6971 229.736 60.6971C230.999 60.6971 232.008 60.2681 232.764 59.4102C233.519 58.5523 233.897 57.4102 233.897 55.9839C233.897 54.5684 233.514 53.437 232.747 52.5898C231.991 51.7426 230.977 51.319 229.703 51.319Z" fill="#303030"/>
<path d="M237.478 50.2735H242.62C243.725 50.2735 244.638 50.504 245.36 50.9651C246.092 51.4263 246.459 52.1501 246.459 53.1367C246.459 53.7051 246.295 54.2145 245.968 54.6649C245.653 55.1046 245.224 55.4155 244.683 55.5979C245.427 55.7587 245.997 56.0912 246.391 56.5952C246.797 57.0992 247 57.7319 247 58.4933C247 60.6488 245.478 61.7265 242.434 61.7265H237.478V50.2735ZM239.034 51.5603V55.1796H241.892C242.219 55.1796 242.496 55.1743 242.721 55.1635C242.958 55.1421 243.223 55.0992 243.516 55.0349C243.809 54.9705 244.04 54.8794 244.209 54.7614C244.39 54.6327 244.542 54.4504 244.666 54.2145C244.801 53.9786 244.869 53.6944 244.869 53.3619C244.869 53.0295 244.813 52.7507 244.7 52.5255C244.587 52.2895 244.452 52.1126 244.294 51.9946C244.136 51.866 243.916 51.7694 243.634 51.7051C243.364 51.6408 243.116 51.6032 242.89 51.5925C242.676 51.571 242.394 51.5603 242.045 51.5603H239.034ZM239.034 56.37V60.4558H242.214C242.608 60.4558 242.93 60.4504 243.178 60.4397C243.426 60.4182 243.702 60.37 244.007 60.2949C244.322 60.2198 244.57 60.1126 244.751 59.9732C244.931 59.8231 245.083 59.6139 245.207 59.3458C245.331 59.067 245.393 58.7346 245.393 58.3485C245.393 58.0268 245.348 57.748 245.258 57.5121C245.179 57.2761 245.038 57.0885 244.835 56.9491C244.644 56.8097 244.458 56.6971 244.277 56.6113C244.108 56.5255 243.86 56.4665 243.533 56.4343C243.206 56.4021 242.952 56.3861 242.772 56.3861C242.592 56.3753 242.315 56.37 241.943 56.37H239.034Z" fill="#303030"/>
</svg>
