<svg width="40" height="40" viewBox="0 0 40 40" fill="none" xmlns="http://www.w3.org/2000/svg">
<path d="M20 40C31.0457 40 40 31.0457 40 20C40 8.9543 31.0457 0 20 0C8.9543 0 0 8.9543 0 20C0 31.0457 8.9543 40 20 40Z" fill="#00D954"/>
<path d="M8.53 31.5L10.18 25.35C8.851 22.9519 8.43164 20.1548 8.9989 17.4724C9.56616 14.79 11.082 12.4022 13.2681 10.7474C15.4541 9.09264 18.1638 8.28194 20.8995 8.46416C23.6351 8.64639 26.2133 9.8093 28.1606 11.7394C30.1079 13.6695 31.2936 16.2372 31.5001 18.9712C31.7066 21.7052 30.92 24.4219 29.2846 26.6226C27.6493 28.8232 25.275 30.3602 22.5978 30.9512C19.9205 31.5422 17.1198 31.1477 14.71 29.84L8.53 31.5ZM15.02 27.5L15.41 27.73C17.3483 28.8855 19.6425 29.2917 21.8597 28.872C24.077 28.4523 26.064 27.2358 27.4459 25.4518C28.8279 23.6679 29.5092 21.4399 29.3615 19.1881C29.2137 16.9363 28.247 14.8165 26.6437 13.2285C25.0405 11.6404 22.9115 10.694 20.6584 10.5677C18.4054 10.4414 16.184 11.144 14.4133 12.5429C12.6426 13.9418 11.445 15.9403 11.0465 18.1615C10.648 20.3826 11.0761 22.6728 12.25 24.6L12.49 24.99L11.57 28.42L15.02 27.5Z" fill="white"/>
<path fill-rule="evenodd" clip-rule="evenodd" d="M24.34 21.44C24.1131 21.2607 23.8489 21.1345 23.5669 21.0705C23.2849 21.0064 22.9921 21.0063 22.71 21.07C22.29 21.25 22.02 21.91 21.71 22.24C21.6548 22.3223 21.5703 22.3806 21.4737 22.4029C21.3772 22.4252 21.2757 22.4098 21.19 22.36C19.6435 21.7546 18.3467 20.6446 17.51 19.21C17.4404 19.118 17.408 19.0031 17.4191 18.8883C17.4302 18.7735 17.4841 18.667 17.57 18.59C17.8863 18.2968 18.1178 17.9237 18.24 17.51C18.2611 17.0637 18.1572 16.6204 17.94 16.23C17.7722 15.6722 17.4455 15.1753 17 14.8C16.7704 14.6926 16.5141 14.6552 16.2634 14.6925C16.0126 14.7299 15.7784 14.8403 15.59 15.01C15.2655 15.2884 15.0073 15.6358 14.8343 16.0268C14.6613 16.4179 14.5778 16.8426 14.59 17.27C14.5891 17.5129 14.6193 17.7548 14.68 17.99C14.8348 18.5527 15.067 19.0912 15.37 19.59C15.5913 19.9653 15.8316 20.3291 16.09 20.68C16.936 21.84 17.9989 22.8249 19.22 23.58C19.829 23.9695 20.484 24.2819 21.17 24.51C21.8768 24.8324 22.658 24.9569 23.43 24.87C23.8719 24.8017 24.2904 24.6266 24.6494 24.36C25.0084 24.0934 25.2969 23.7433 25.49 23.34C25.5972 23.0949 25.6319 22.8242 25.59 22.56C25.5 22 24.77 21.7 24.34 21.44Z" fill="white"/>
</svg>
