<svg width="40" height="40" viewBox="0 0 40 40" fill="none" xmlns="http://www.w3.org/2000/svg">
<circle cx="20" cy="20" r="20" fill="#2787F5"/>
<path d="M30.7577 26.3985C31.2256 27.1374 30.9365 27.8324 30.0618 27.9585C29.5116 28.034 26.8233 27.9585 26.6845 27.9585C25.988 27.9665 25.3166 27.6984 24.8173 27.2128C24.2505 26.6664 23.7343 26.0672 23.1894 25.4966C23.0263 25.3228 22.8496 25.1623 22.6611 25.0166C22.2158 24.677 21.778 24.7524 21.5697 25.2755C21.3924 25.7283 21.2384 26.9057 21.2309 27.006C21.1939 27.5343 20.858 27.8702 20.2679 27.9026C18.5629 27.9947 16.9101 27.8045 15.3713 26.9804C14.0671 26.2815 13.0248 25.2936 12.126 24.1419C10.692 22.3124 9.55993 20.3011 8.52672 18.2302C8.47389 18.1245 7.4271 15.8966 7.39917 15.7917C7.30559 15.4392 7.39238 15.1026 7.6905 14.9864C7.87616 14.9147 11.3282 14.9864 11.3886 14.9864C11.9388 15.0166 12.3146 15.249 12.5463 15.8166C13.206 17.4453 14.0422 18.9811 15.1426 20.3592C15.2928 20.5437 15.4693 20.7052 15.6663 20.8385C15.9494 21.0324 16.2165 20.9645 16.332 20.6407C16.4688 20.1903 16.5495 19.7246 16.572 19.2543C16.5901 18.3223 16.572 17.7109 16.5199 16.7789C16.4867 16.1826 16.2746 15.6589 15.3969 15.5004C15.126 15.4513 15.1011 15.2287 15.2754 15.006C15.6377 14.5426 16.1426 14.4687 16.6905 14.4392C17.5773 14.3917 18.4686 14.4309 19.3569 14.4392C19.7207 14.439 20.0836 14.4759 20.4399 14.5494C20.9048 14.6506 21.1539 14.9774 21.2301 15.4309C21.271 15.6659 21.2895 15.9042 21.2852 16.1426C21.2618 17.1607 21.2097 18.1804 21.2014 19.1962C21.1924 19.5983 21.2292 20.0001 21.3109 20.394C21.4301 20.9358 21.7992 21.0732 22.1765 20.6807C22.6499 20.1755 23.0829 19.634 23.4716 19.0611C24.1924 18.0272 24.7305 16.8921 25.1939 15.7223C25.4331 15.1185 25.6173 14.9872 26.2663 14.9857C27.4875 14.9826 28.7084 14.9826 29.929 14.9857C30.148 14.9821 30.3662 15.0114 30.5765 15.0724C30.9079 15.1781 31.0392 15.4498 30.9622 15.7917C30.7773 16.5962 30.3396 17.283 29.8769 17.9366C29.1305 18.9932 28.3471 20.0204 27.5826 21.0626C27.4863 21.1965 27.3983 21.3361 27.3192 21.4807C27.0331 21.9977 27.0535 22.2875 27.4701 22.7177C28.1343 23.4023 28.8452 24.043 29.4875 24.7464C29.9582 25.2591 30.3832 25.8119 30.7577 26.3985Z" fill="white"/>
</svg>
