<svg width="40" height="40" viewBox="0 0 40 40" fill="none" xmlns="http://www.w3.org/2000/svg">
<path d="M20 40C31.0457 40 40 31.0457 40 20C40 8.9543 31.0457 0 20 0C8.9543 0 0 8.9543 0 20C0 31.0457 8.9543 40 20 40Z" fill="url(#paint0_linear)"/>
<path d="M26.17 12.51C25.8986 12.51 25.6333 12.5906 25.4078 12.7416C25.1823 12.8926 25.0067 13.1072 24.9034 13.3581C24.8 13.609 24.7734 13.885 24.8271 14.151C24.8808 14.417 25.0123 14.6611 25.2049 14.8523C25.3975 15.0435 25.6425 15.1732 25.9089 15.2249C26.1753 15.2766 26.4511 15.2481 26.7012 15.1428C26.9514 15.0376 27.1647 14.8605 27.314 14.6338C27.4633 14.4072 27.542 14.1414 27.54 13.87C27.5374 13.5084 27.3919 13.1625 27.1352 12.9077C26.8786 12.653 26.5316 12.51 26.17 12.51Z" fill="white"/>
<path d="M20.1 14.26C18.9647 14.26 17.855 14.5967 16.911 15.2274C15.9671 15.8581 15.2314 16.7546 14.7969 17.8034C14.3625 18.8523 14.2488 20.0064 14.4703 21.1198C14.6918 22.2333 15.2385 23.256 16.0412 24.0588C16.844 24.8616 17.8667 25.4082 18.9802 25.6297C20.0936 25.8512 21.2478 25.7375 22.2966 25.3031C23.3455 24.8686 24.2419 24.1329 24.8726 23.189C25.5034 22.245 25.84 21.1353 25.84 20C25.84 18.4777 25.2353 17.0177 24.1588 15.9412C23.0823 14.8648 21.6223 14.26 20.1 14.26ZM20.1 23.68C19.3717 23.682 18.6593 23.4678 18.0528 23.0647C17.4463 22.6615 16.9731 22.0875 16.693 21.4152C16.4129 20.743 16.3386 20.0027 16.4795 19.2882C16.6204 18.5737 16.9701 17.9171 17.4843 17.4014C17.9986 16.8858 18.6543 16.5343 19.3684 16.3915C20.0825 16.2487 20.8229 16.321 21.496 16.5992C22.169 16.8774 22.7443 17.3491 23.1491 17.9545C23.5539 18.5599 23.77 19.2717 23.77 20C23.77 20.9743 23.3837 21.9088 22.6957 22.5986C22.0077 23.2885 21.0743 23.6774 20.1 23.68Z" fill="white"/>
<path d="M24.65 31.65H15.35C13.4935 31.65 11.713 30.9125 10.4003 29.5997C9.0875 28.287 8.35001 26.5065 8.35001 24.65V15.35C8.35001 13.4935 9.0875 11.713 10.4003 10.4002C11.713 9.08747 13.4935 8.34998 15.35 8.34998H24.65C25.5693 8.34998 26.4795 8.53104 27.3288 8.88282C28.1781 9.2346 28.9497 9.75022 29.5998 10.4002C30.2498 11.0502 30.7654 11.8219 31.1172 12.6712C31.4689 13.5205 31.65 14.4307 31.65 15.35V24.65C31.65 25.5692 31.4689 26.4795 31.1172 27.3288C30.7654 28.178 30.2498 28.9497 29.5998 29.5997C28.9497 30.2497 28.1781 30.7653 27.3288 31.1171C26.4795 31.4689 25.5693 31.65 24.65 31.65ZM15.35 10.54C14.0751 10.5426 12.8532 11.0502 11.9517 11.9517C11.0503 12.8532 10.5426 14.0751 10.54 15.35V24.65C10.5426 25.9249 11.0503 27.1468 11.9517 28.0482C12.8532 28.9497 14.0751 29.4573 15.35 29.46H24.65C25.9249 29.4573 27.1468 28.9497 28.0483 28.0482C28.9497 27.1468 29.4574 25.9249 29.46 24.65V15.35C29.4574 14.0751 28.9497 12.8532 28.0483 11.9517C27.1468 11.0502 25.9249 10.5426 24.65 10.54H15.35Z" fill="white"/>
<defs>
<linearGradient id="paint0_linear" x1="1.27" y1="4.18" x2="41.26" y2="37.95" gradientUnits="userSpaceOnUse">
<stop stop-color="#FFE185"/>
<stop offset="0.21" stop-color="#FFBB36"/>
<stop offset="0.38" stop-color="#FF5176"/>
<stop offset="0.52" stop-color="#F63395"/>
<stop offset="0.74" stop-color="#A436D2"/>
<stop offset="1" stop-color="#5F4EED"/>
</linearGradient>
</defs>
</svg>
